<svg width="120" height="65" viewBox="0 0 120 65" fill="none" xmlns="http://www.w3.org/2000/svg">
<path d="M16.4852 33.2854C14.5347 34.1334 12.6337 36.6068 11.927 37.7375C12.7751 37.7375 14.1885 36.7482 14.7891 36.2535C15.4676 35.5751 16.6266 35.1934 17.1212 35.0874C18.4781 36.0399 19.8067 35.4843 20.3014 35.0874H23.5875C24.69 34.9178 25.6016 33.8154 25.9196 33.2854L28.6757 32.9674C29.6086 32.5433 29.3471 31.66 29.0997 31.2713C28.5909 29.0664 29.0997 28.1618 29.4177 27.9851C31.3682 28.7484 32.8452 30.7059 33.3399 31.5893L31.5378 34.0274H36.838C41.6718 32.1617 44.9297 31.6246 45.9544 31.5893C48.4137 31.8437 53.4101 34.8754 55.6008 36.3595C57.3817 37.0379 57.4029 36.0768 57.1909 35.5115C56.5125 33.3066 52.5974 30.4939 50.7246 29.3632C47.8413 28.0063 44.2937 25.547 42.8803 24.487C45.2548 23.5542 46.9791 21.4835 47.5445 20.5648C47.5445 19.7168 51.0426 11.9785 54.8588 11.3425C54.8588 10.4944 56.4135 8.86903 57.1909 8.16233C57.5301 7.05989 58.6749 6.43093 59.205 6.25426C60.477 6.76308 61.1484 8.51568 61.3251 9.32838C61.9187 10.0068 61.5724 11.4485 61.3251 12.0845L57.8269 12.6145L54.1168 15.7946C53.5231 17.2363 52.1027 18.3741 51.4666 18.7628C50.2794 18.8476 50.4773 19.5755 50.7246 19.9288H54.3288C56.0248 19.9288 56.9435 21.9076 57.1909 22.8969C59.0566 25.017 65.4592 28.5152 68.4273 29.9992C73.0067 31.0169 77.6144 34.9461 79.3458 36.7835C79.0914 34.9178 79.4518 34.3807 79.6638 34.3454C81.0207 35.0238 81.2892 38.1616 81.2539 39.6456C81.8475 40.9177 82.6319 40.8117 82.9499 40.5997V38.9036C82.4411 38.2252 82.7379 37.3489 82.9499 36.9955H86.3421C87.6141 37.4195 90.2642 39.9283 91.4303 41.1297C92.7871 41.8081 93.0557 41.059 93.0203 40.5997L89.5222 36.9955C89.0982 35.6387 87.8615 34.5221 87.2961 34.1334C84.4976 29.8084 81.6072 27.8085 80.5118 27.3491C78.731 26.6707 77.2257 24.3103 76.6957 23.2149L73.6216 17.7027C72.5191 14.3106 69.2754 11.7665 67.7913 10.9184C66.6041 10.8336 64.7525 8.76303 63.9752 7.73832L59.947 0L52.6327 8.16233C53.1415 10.028 52.2793 10.6358 51.7847 10.7064C50.767 10.9608 47.8978 15.6886 46.5904 18.0207C45.2336 20.8193 43.057 21.7309 42.1383 21.8369L40.9722 22.4729L35.036 28.8332C33.0855 28.2396 30.4778 25.4764 29.4177 24.169C28.9937 23.9146 28.5344 24.063 28.3577 24.169C27.1705 25.8651 24.0115 28.7877 22.6335 29.5752C22.0398 29.9144 20.5487 29.9992 19.8774 29.9992L19.1353 30.8473C18.3721 30.8473 17.0506 32.4727 16.4852 33.2854Z" fill="#FADC99"/>
<path d="M80.8298 18.9748C78.5402 20.2468 77.6851 22.3316 77.5437 23.2149C78.2221 23.2149 79.3105 22.7203 79.7698 22.4729C80.2786 21.7097 81.0419 21.5896 81.3599 21.6249C82.2079 22.1337 82.8439 21.6956 83.0559 21.4129C82.9711 20.3104 83.798 19.0454 84.222 18.5508C85.1548 17.8723 85.9534 16.9254 86.2361 16.5367C87.2537 16.3671 87.7201 15.83 87.8261 15.5826C88.2502 14.989 89.2042 15.4766 89.6282 15.7946C90.9003 16.7275 90.5822 18.4448 90.2642 19.1868C88.9922 20.374 88.2502 21.4482 88.0381 21.8369C88.4622 22.5153 90.3349 22.5436 91.2183 22.4729C91.8119 23.0665 93.0203 23.2149 93.5504 23.2149C94.9072 23.0453 95.3878 24.063 95.4584 24.593C95.1192 25.3562 95.0344 27.3845 95.0344 28.3032C94.6952 29.1512 95.7411 30.4939 96.3065 31.0593C96.9849 27.9215 98.9919 27.9145 99.9106 28.3032C101.183 27.9639 101.183 31.3773 101.183 33.0734C100.843 33.7518 101.536 34.9108 101.925 35.4054C102.773 34.8966 102.843 33.6387 102.773 33.0734C102.603 31.8013 103.409 31.4126 103.833 31.3773C105.274 32.6493 109.804 34.2394 111.889 34.8754C113.84 35.2146 114.893 35.0168 115.175 34.8754C115.006 34.3666 113.903 34.0981 113.373 34.0274C113.204 33.6882 112.101 33.3914 111.571 33.2854C108.773 32.1829 105.882 29.7872 104.787 28.7272C104.532 28.0487 103.621 27.1724 103.197 26.8191C102.264 26.3103 99.6986 22.7909 98.5326 21.0949C98.2782 19.9076 97.0838 18.9041 96.5185 18.5508C95.5008 18.5508 94.1157 17.9147 93.5504 17.5967C92.7023 17.4271 91.0063 14.4873 90.2642 13.0385C89.925 11.4273 89.0629 10.9538 88.6742 10.9184C88.1653 12.1905 85.7767 14.5579 84.646 15.5826C82.5259 15.837 81.2185 17.9501 80.8298 18.9748Z" fill="#FADC99"/>
<path d="M116.825 37.034L116.871 36.9955C112.292 46.0695 100.052 49.1153 94.5044 49.504C85.8545 50.2673 74.0102 47.1366 69.1694 45.4759C63.6571 43.5254 48.0745 41.4124 40.9722 40.5997C25.6228 38.9036 12.1744 42.0131 7.36884 43.7798C4.57033 44.8822 3.37601 44.8752 3.12867 44.7338C15.7644 35.7447 38.4281 35.4054 48.1805 36.3595C64.0388 37.9708 72.8795 40.7763 75.3176 41.9777C82.6107 44.437 87.0841 45.1578 94.5044 45.4759C105.321 46.5744 112.474 40.642 116.825 37.034Z" fill="#FADC99"/>
<path d="M75.7416 24.805C77.1833 26.9251 79.9465 29.2219 81.1479 30.1052C80.0454 30.5293 76.0243 28.0912 74.1516 26.8191C72.8795 25.9711 71.0068 24.275 70.2294 23.533C67.6005 21.8369 66.5899 19.9995 66.4133 19.2928C67.0917 18.4448 69.0987 18.7981 70.0174 19.0808C72.1375 19.5896 74.7169 23.109 75.7416 24.805Z" fill="#353535"/>
<path d="M3.18013 52.484H0L0.106004 60.2223C1.37806 64.0385 4.1695 64.7098 5.40622 64.5685H8.90436C11.7029 64.2293 13.0385 61.5297 13.3565 60.2223V54.1801L13.5686 52.484H10.2824L10.8124 54.1801V58.7382C10.7276 61.1975 8.9397 62.1657 8.05633 62.3424H5.40622C3.20133 61.5792 2.86212 59.6216 2.96812 58.7382V54.1801L3.18013 52.484Z" fill="white"/>
<path d="M18.0207 53.756L17.8087 52.484H20.8829L29.1512 61.1763V55.0281L28.8332 52.484H32.4373L31.9073 55.0281V64.5685H29.3632L20.8829 55.5581L20.5648 56.7242V63.2964L20.9889 64.5685H17.5967L18.0207 63.2964V53.756Z" fill="white"/>
<path d="M36.5715 54.074L36.2535 52.484H39.7516L39.2216 54.074V63.0844L39.7516 64.5685H36.3595L36.5715 63.0844V54.074Z" fill="white"/>
<path d="M49.398 52.484L48.762 54.8161H54.2742V63.2964L53.8502 64.5685H57.1363L56.8183 63.2964V54.8161H62.5426L61.8005 52.484H49.398Z" fill="white"/>
<path d="M65.9347 54.074L65.7227 52.484H75.6871C78.316 52.8232 78.8319 54.1801 78.7612 54.8161V56.9362C78.1676 58.293 75.4751 58.9149 74.203 59.0563L75.6871 59.9043C76.1111 60.2435 77.4892 61.6004 78.1252 62.2364H78.8672L80.2453 61.4944V63.8264C80.2453 64.3353 79.6093 64.6038 79.2912 64.6745H76.7471C75.6447 63.9113 75.0157 62.8724 74.8391 62.4484C74.0758 60.9219 72.6836 60.1163 72.0829 59.9043H68.5848V62.4484L68.7968 64.6745H65.5107L65.9347 62.4484V54.074Z" fill="white"/>
<path d="M83.5314 53.968L83.1074 52.484H86.6055L86.3935 53.968V64.6745H83.3194L83.5314 63.0844V53.968Z" fill="white"/>
<path d="M90.8457 53.968L90.6337 52.484H99.6441C104.139 53.5016 104.273 56.5828 103.778 57.9962C103.524 60.5403 101.057 61.3177 99.8561 61.3883H97.736C95.3615 61.3883 93.8492 59.1269 93.3898 57.9962V63.0844L94.0258 64.6745H90.4217L90.8457 63.0844V53.968Z" fill="white"/>
<path d="M118.725 53.226L118.937 55.5581C118.004 55.1341 115.58 54.6747 114.485 54.4981H111.199C109.757 54.6677 109.326 55.4874 109.29 55.8761C109.46 56.3849 110.633 56.8655 111.199 57.0422C114.336 57.2966 116.534 57.7842 117.241 57.9962C120.294 59.0987 120.209 61.0703 119.785 61.9184C118.937 64.0385 116.322 64.7098 115.121 64.7805C110.541 64.8653 107.63 64.1091 106.746 63.7204L106.852 60.9643C107.276 60.8795 108.654 61.565 109.29 61.9184C110.393 62.512 113.637 62.5191 115.121 62.4484C117.071 62.4484 117.347 61.3883 117.241 60.8583C116.902 60.0951 115.686 59.8336 115.121 59.7983C114.273 59.6287 112.153 59.3743 111.199 59.2683C106.874 58.505 106.428 56.2648 106.746 55.2401C107.255 53.2896 109.926 52.378 111.199 52.166H114.485C117.368 52.3356 118.513 52.9433 118.725 53.226Z" fill="white"/>
<path d="M68.5848 55.1341C68.5848 54.8797 68.7968 54.8161 68.9028 54.8161H74.521C75.5387 54.9009 76.1464 55.5581 76.3231 55.8761V56.6182C76.0687 57.3814 74.8037 57.7842 74.203 57.8902H69.1148C68.606 57.8902 68.5494 57.6782 68.5848 57.5722V55.1341Z" fill="#262626"/>
<path d="M98.902 54.6041H93.9198C93.6654 54.5193 93.4605 54.7807 93.3898 54.9221V56.0881C94.153 58.0386 96.1106 58.9502 96.9939 59.1623H98.902C100.513 58.9926 101.128 57.9609 101.234 57.4662V56.3001C100.98 55.1129 99.5734 54.6747 98.902 54.6041Z" fill="#262626"/>
</svg>
